G04*
G04 #@! TF.GenerationSoftware,Altium Limited,Altium Designer,25.2.1 (25)*
G04*
G04 Layer_Physical_Order=1*
G04 Layer_Color=255*
%FSLAX44Y44*%
%MOMM*%
G71*
G04*
G04 #@! TF.SameCoordinates,E4EDD719-2FE0-4279-8059-04D131320F8D*
G04*
G04*
G04 #@! TF.FilePolarity,Positive*
G04*
G01*
G75*
%ADD15C,0.2540*%
%ADD16R,3.8500X4.0000*%
%ADD17R,0.6000X1.2500*%
%ADD18R,1.7000X1.1000*%
%ADD19R,1.8000X1.3000*%
%ADD20R,2.5000X3.5000*%
G04:AMPARAMS|DCode=21|XSize=2.4036mm|YSize=3.2121mm|CornerRadius=0.4567mm|HoleSize=0mm|Usage=FLASHONLY|Rotation=0.000|XOffset=0mm|YOffset=0mm|HoleType=Round|Shape=RoundedRectangle|*
%AMROUNDEDRECTD21*
21,1,2.4036,2.2988,0,0,0.0*
21,1,1.4902,3.2121,0,0,0.0*
1,1,0.9134,0.7451,-1.1494*
1,1,0.9134,-0.7451,-1.1494*
1,1,0.9134,-0.7451,1.1494*
1,1,0.9134,0.7451,1.1494*
%
%ADD21ROUNDEDRECTD21*%
G04:AMPARAMS|DCode=22|XSize=2.4036mm|YSize=0.9121mm|CornerRadius=0.4561mm|HoleSize=0mm|Usage=FLASHONLY|Rotation=0.000|XOffset=0mm|YOffset=0mm|HoleType=Round|Shape=RoundedRectangle|*
%AMROUNDEDRECTD22*
21,1,2.4036,0.0000,0,0,0.0*
21,1,1.4915,0.9121,0,0,0.0*
1,1,0.9121,0.7457,0.0000*
1,1,0.9121,-0.7457,0.0000*
1,1,0.9121,-0.7457,0.0000*
1,1,0.9121,0.7457,0.0000*
%
%ADD22ROUNDEDRECTD22*%
%ADD23R,2.4036X0.9121*%
%ADD24R,1.0557X1.6582*%
%ADD25R,1.9050X2.7900*%
%ADD26R,2.8062X2.1029*%
%ADD27R,1.7582X1.1561*%
%ADD28R,1.3500X1.1000*%
%ADD29R,1.7540X1.8062*%
%ADD30R,1.7000X0.9500*%
%ADD31R,1.3500X0.9500*%
%ADD53C,1.5000*%
%ADD54C,1.2000*%
%ADD55C,0.5000*%
%ADD56C,1.0000*%
%ADD57C,0.6500*%
%ADD58R,1.5180X1.5180*%
%ADD59C,1.5180*%
%ADD60C,2.0250*%
%ADD61R,2.0250X2.0250*%
%ADD62C,1.6500*%
%ADD63R,1.6500X1.6500*%
%ADD64R,1.7000X1.7000*%
%ADD65C,1.7000*%
%ADD66C,1.6000*%
%ADD67R,1.6000X1.6000*%
G04:AMPARAMS|DCode=68|XSize=1.65mm|YSize=1.65mm|CornerRadius=0.4125mm|HoleSize=0mm|Usage=FLASHONLY|Rotation=270.000|XOffset=0mm|YOffset=0mm|HoleType=Round|Shape=RoundedRectangle|*
%AMROUNDEDRECTD68*
21,1,1.6500,0.8250,0,0,270.0*
21,1,0.8250,1.6500,0,0,270.0*
1,1,0.8250,-0.4125,-0.4125*
1,1,0.8250,-0.4125,0.4125*
1,1,0.8250,0.4125,0.4125*
1,1,0.8250,0.4125,-0.4125*
%
%ADD68ROUNDEDRECTD68*%
%ADD69C,1.9500*%
G04:AMPARAMS|DCode=70|XSize=1.65mm|YSize=1.65mm|CornerRadius=0.4125mm|HoleSize=0mm|Usage=FLASHONLY|Rotation=180.000|XOffset=0mm|YOffset=0mm|HoleType=Round|Shape=RoundedRectangle|*
%AMROUNDEDRECTD70*
21,1,1.6500,0.8250,0,0,180.0*
21,1,0.8250,1.6500,0,0,180.0*
1,1,0.8250,-0.4125,0.4125*
1,1,0.8250,0.4125,0.4125*
1,1,0.8250,0.4125,-0.4125*
1,1,0.8250,-0.4125,-0.4125*
%
%ADD70ROUNDEDRECTD70*%
%ADD71C,2.2500*%
%ADD72C,1.2700*%
%ADD73C,5.0000*%
D15*
X43997Y698000D02*
X51455D01*
X65340Y711886D01*
X69886D01*
X87000Y729000D01*
X677500Y1187500D02*
X709738D01*
X675000Y1190000D02*
X677500Y1187500D01*
X557000Y696997D02*
X557997Y696000D01*
X557000Y696997D02*
Y727000D01*
X596850Y669558D02*
Y1067680D01*
X597170Y1068000D01*
X66997Y1395000D02*
X69181Y1397184D01*
X85073D01*
X707000Y1340238D02*
Y1372000D01*
Y1340238D02*
X709738Y1337500D01*
X44000Y555000D02*
X47000Y552000D01*
X44000Y555000D02*
Y613000D01*
X557997Y630705D02*
X596850Y669558D01*
X557997Y551000D02*
Y630705D01*
X530997Y1292000D02*
X534127Y1288871D01*
X622427D01*
X656298Y1255000D01*
X709738D01*
X705729Y1286509D02*
X709738Y1282500D01*
X705729Y1286509D02*
Y1293065D01*
X601924Y1396871D02*
X705729Y1293065D01*
X534127Y1396871D02*
X601924D01*
X530997Y1400000D02*
X534127Y1396871D01*
X675000Y1134000D02*
X710738D01*
X712238Y1132500D01*
X675000Y1162460D02*
X712198D01*
X712238Y1162500D01*
X735262Y1337500D02*
X770000D01*
X1228132Y1402175D02*
Y1406006D01*
Y1402175D02*
X1307829Y1322478D01*
X1313522D02*
X1321000Y1315000D01*
X1235340Y1413213D02*
Y1443315D01*
X1307829Y1322478D02*
X1313522D01*
X1228132Y1406006D02*
X1235340Y1413213D01*
X1196600Y1388600D02*
X1270200Y1315000D01*
X1095000Y1439500D02*
X1219400Y1315100D01*
X1225833Y1452822D02*
X1235340Y1443315D01*
X1208778Y1452822D02*
X1225833D01*
X1196600Y1465000D02*
X1208778Y1452822D01*
X1222000Y1388600D02*
X1295600Y1315000D01*
X1222000Y1388600D02*
Y1439600D01*
X1196600Y1388600D02*
Y1439600D01*
X1082940Y1426060D02*
X1194000Y1315000D01*
X1082940Y1426060D02*
Y1444595D01*
X1091285Y1452940D01*
X1108340D01*
X1120400Y1465000D01*
X1244800Y1315000D02*
Y1315100D01*
X1120400Y1439500D02*
X1244800Y1315100D01*
X1120400Y1439500D02*
Y1439600D01*
X1219400Y1315000D02*
Y1315100D01*
X1095000Y1439500D02*
Y1439600D01*
X976865Y1301065D02*
X990800Y1315000D01*
X778935Y1301065D02*
X976865D01*
X770000Y1310000D02*
X778935Y1301065D01*
X737762Y1132500D02*
X859100D01*
X1041600Y1315000D01*
X737762Y1162500D02*
X740262Y1165000D01*
X807500D01*
X735262Y1282500D02*
X887500D01*
X735262Y1310000D02*
X770000D01*
X735262Y1255000D02*
X770000D01*
X740262Y1192500D02*
X807500D01*
X737762Y1190000D02*
X740262Y1192500D01*
X1331300Y1105000D02*
X1368800Y1067500D01*
X737762Y1105000D02*
X1331300D01*
X709738Y1187500D02*
X712238Y1190000D01*
X675000Y1105000D02*
X712238D01*
D16*
X795750Y640000D02*
D03*
X719250D02*
D03*
D17*
X850500Y787500D02*
D03*
X860000D02*
D03*
X869500D02*
D03*
Y762500D02*
D03*
X860000D02*
D03*
X850500D02*
D03*
X1123000D02*
D03*
X1132500D02*
D03*
X1142000D02*
D03*
Y787500D02*
D03*
X1132500D02*
D03*
X1123000D02*
D03*
D18*
X777500Y835500D02*
D03*
Y864500D02*
D03*
X1102500Y836000D02*
D03*
Y865000D02*
D03*
D19*
X1155000Y863000D02*
D03*
Y832000D02*
D03*
D20*
X566000Y830500D02*
D03*
Y765500D02*
D03*
X95000Y1174500D02*
D03*
Y1109500D02*
D03*
X566000Y1168500D02*
D03*
Y1103500D02*
D03*
X66000Y832500D02*
D03*
Y767500D02*
D03*
D21*
X618003Y528000D02*
D03*
X127003Y1372000D02*
D03*
X128003Y1264000D02*
D03*
X591003Y1269000D02*
D03*
Y1377000D02*
D03*
X104003Y675000D02*
D03*
X618003Y673000D02*
D03*
X107006Y529000D02*
D03*
D22*
X557997Y505000D02*
D03*
Y528000D02*
D03*
X66997Y1372000D02*
D03*
Y1349000D02*
D03*
X67997Y1241000D02*
D03*
Y1264000D02*
D03*
X530997Y1246000D02*
D03*
Y1269000D02*
D03*
Y1354000D02*
D03*
Y1377000D02*
D03*
X43997Y652000D02*
D03*
Y675000D02*
D03*
X557997Y673000D02*
D03*
Y650000D02*
D03*
X47000Y506000D02*
D03*
Y529000D02*
D03*
D23*
X557997Y551000D02*
D03*
X66997Y1395000D02*
D03*
X67997Y1287000D02*
D03*
X530997Y1292000D02*
D03*
Y1400000D02*
D03*
X43997Y698000D02*
D03*
X557997Y696000D02*
D03*
X47000Y552000D02*
D03*
D24*
X712238Y1162500D02*
D03*
X737762D02*
D03*
X735262Y1310000D02*
D03*
X709738D02*
D03*
X735262Y1337500D02*
D03*
X709738D02*
D03*
X735262Y1282500D02*
D03*
X709738D02*
D03*
X735262Y1255000D02*
D03*
X709738D02*
D03*
X737762Y1190000D02*
D03*
X712238D02*
D03*
Y1132500D02*
D03*
X737762D02*
D03*
X712238Y1105000D02*
D03*
X737762D02*
D03*
D25*
X1008990Y645000D02*
D03*
X1057500D02*
D03*
D26*
X1012500Y857500D02*
D03*
Y832488D02*
D03*
D27*
X832500Y863522D02*
D03*
Y835000D02*
D03*
D28*
X720000Y832000D02*
D03*
Y865000D02*
D03*
D29*
X1118978Y650000D02*
D03*
X1142500D02*
D03*
X845739D02*
D03*
X869261D02*
D03*
D30*
X800000Y728500D02*
D03*
Y756500D02*
D03*
X1057500Y728500D02*
D03*
Y756500D02*
D03*
D31*
X1062500Y850000D02*
D03*
Y865000D02*
D03*
D53*
X566000Y1103500D02*
Y1107200D01*
X561000Y1112200D02*
X566000Y1107200D01*
X469000Y1112200D02*
X561000D01*
X95000Y1179500D02*
X150061Y1234561D01*
Y1267880D01*
X86120Y937500D02*
X194000Y1045380D01*
Y1114200D01*
X326000Y1113200D02*
X327000Y1112200D01*
X469000D01*
X260125Y1113200D02*
X326000D01*
X259125Y1114200D02*
X260125Y1113200D01*
X194000Y1114200D02*
X259125D01*
X86120Y937500D02*
Y1014060D01*
X95000Y1022940D01*
Y1109500D01*
X633000Y801321D02*
X669141Y765180D01*
Y566859D02*
Y765180D01*
Y566859D02*
X844000Y392000D01*
X633000Y801321D02*
Y1257000D01*
X195617Y1313383D02*
X196000Y1313000D01*
X195617Y1313383D02*
Y1342988D01*
X140504Y1398101D02*
X195617Y1342988D01*
X113501Y1398101D02*
X140504D01*
X104945Y1389544D02*
X113501Y1398101D01*
X104945Y1381842D02*
Y1389544D01*
X80502Y1357399D02*
X104945Y1381842D01*
X76975Y1357399D02*
X80502D01*
X68576Y1349000D02*
X76975Y1357399D01*
X66997Y1349000D02*
X68576D01*
X311341Y1244660D02*
X382751D01*
X398091Y1260000D02*
X470000D01*
X382751Y1244660D02*
X398091Y1260000D01*
X469729Y1310800D02*
X470000D01*
X324000Y1314000D02*
X466529D01*
X469729Y1310800D01*
X150061Y1267880D02*
X188321Y1306140D01*
X195459Y1313000D02*
X196000D01*
X188599Y1306140D02*
X195459Y1313000D01*
X188321Y1306140D02*
X188599D01*
X196000Y1313000D02*
X196541D01*
X522000Y505000D02*
X557997D01*
X470000Y1310800D02*
Y1311071D01*
X481040Y1322111D01*
Y1441689D01*
X463000Y1459729D02*
X481040Y1441689D01*
X463000Y1459729D02*
Y1460000D01*
X474000Y349200D02*
X851200D01*
X894000Y392000D01*
X323617Y1288217D02*
X324000Y1288600D01*
X317819Y1288217D02*
X323617D01*
X305460Y1275859D02*
X317819Y1288217D01*
X305460Y1250541D02*
Y1275859D01*
Y1250541D02*
X311341Y1244660D01*
X196541Y1313000D02*
X197541Y1314000D01*
X324000D01*
X385505Y1409200D02*
X463000D01*
X365965Y1389660D02*
X385505Y1409200D01*
X288970Y1389660D02*
X365965D01*
X244230Y1434400D02*
X288970Y1389660D01*
X196000Y1434400D02*
X244230D01*
X323459Y1459000D02*
X324000D01*
X322659Y1459800D02*
X323459Y1459000D01*
X196000Y1459800D02*
X322659D01*
D54*
X127003Y1367957D02*
Y1372000D01*
X120985Y1361939D02*
X127003Y1367957D01*
X114281Y1361939D02*
X120985D01*
X47439Y1295098D02*
X114281Y1361939D01*
X47439Y948923D02*
Y1295098D01*
Y948923D02*
X74993Y921370D01*
X192747D01*
X228377Y957000D01*
X332000D01*
X591501Y1328499D02*
X592000Y1328000D01*
X591501Y1328499D02*
Y1376501D01*
X591003Y1377000D02*
X591501Y1376501D01*
X591003Y1264957D02*
Y1269000D01*
X562836Y1236790D02*
X591003Y1264957D01*
X557803Y1236790D02*
X562836D01*
X530223Y1209210D02*
X557803Y1236790D01*
X347465Y1209210D02*
X530223D01*
X303255Y1165000D02*
X347465Y1209210D01*
X194000Y1165000D02*
X303255D01*
X104003Y670957D02*
Y675000D01*
X86448Y653402D02*
X104003Y670957D01*
X86448Y433175D02*
Y653402D01*
Y433175D02*
X187213Y332410D01*
X252711D01*
X269501Y349200D01*
X335000D01*
X469000Y644000D02*
X471000Y646000D01*
X469000Y632200D02*
Y644000D01*
X333000Y496200D02*
X469000Y632200D01*
X47000Y485000D02*
X63000Y469000D01*
X253000Y652000D02*
X312960Y711960D01*
X618003Y523957D02*
Y528000D01*
X573456Y479410D02*
X618003Y523957D01*
X269390Y479410D02*
X573456D01*
X199000Y549800D02*
X269390Y479410D01*
X199000Y349200D02*
X305721Y455921D01*
X583405D01*
X107006Y529000D02*
X108006Y528000D01*
X153455D01*
X192045Y566590D01*
X252119D01*
X271709Y547000D01*
X333000D01*
X312960Y711960D02*
Y808237D01*
X317963Y813240D01*
X320287D01*
X328647Y821600D01*
X330000D01*
X181960Y636163D02*
X186963Y631160D01*
X268160D01*
X181960Y636163D02*
Y680658D01*
X331000Y694000D02*
X355000Y670000D01*
X475077D02*
X495077Y650000D01*
X355000Y670000D02*
X475077D01*
X1068139Y1465861D02*
X1069000Y1465000D01*
X1068000Y1466000D02*
X1068139Y1465861D01*
X1071679D01*
X653101Y432899D02*
X694000Y392000D01*
X653101Y432899D02*
Y675383D01*
X616960Y711524D02*
X653101Y675383D01*
X616960Y711524D02*
Y1094617D01*
X582037Y1129540D02*
X616960Y1094617D01*
X573030Y1129540D02*
X582037D01*
X566000Y1136570D02*
X573030Y1129540D01*
X566000Y1136570D02*
Y1168500D01*
X628960Y584356D02*
X638561Y574755D01*
Y511077D02*
Y574755D01*
X628960Y584356D02*
Y586330D01*
X583405Y455921D02*
X638561Y511077D01*
X618003Y597287D02*
X628960Y586330D01*
X500000Y1229000D02*
X502009Y1231009D01*
X511428D02*
X526419Y1246000D01*
X502009Y1231009D02*
X511428D01*
X468166Y1285574D02*
X524979Y1342388D01*
X346374Y1285574D02*
X468166D01*
X324000Y1263200D02*
X346374Y1285574D01*
X524979Y1342388D02*
Y1352561D01*
X526419Y1354000D01*
X530997D01*
X618003Y597287D02*
Y673000D01*
X268160Y631160D02*
X331000Y694000D01*
X181960Y680658D02*
X199000Y697698D01*
Y699000D01*
Y673600D02*
Y674902D01*
X216040Y691942D01*
Y806237D01*
X209037Y813240D02*
X216040Y806237D01*
X206713Y813240D02*
X209037D01*
X198353Y821600D02*
X206713Y813240D01*
X197000Y821600D02*
X198353D01*
X552120Y886457D02*
Y920500D01*
Y886457D02*
X587040Y851537D01*
Y809463D02*
Y851537D01*
X579809Y802231D02*
X587040Y809463D01*
X573231Y802231D02*
X579809D01*
X566000Y795000D02*
X573231Y802231D01*
X566000Y765500D02*
Y795000D01*
X498700Y765500D02*
X566000D01*
X468000Y796200D02*
X498700Y765500D01*
X417200Y847000D02*
X468000Y796200D01*
X330000Y847000D02*
X417200D01*
X197000D02*
X330000D01*
X117500Y767500D02*
X197000Y847000D01*
X66000Y767500D02*
X117500D01*
X66000Y832500D02*
X158402D01*
X189942Y864040D01*
X566000Y830500D02*
Y835500D01*
X537460Y864040D02*
X566000Y835500D01*
X189942Y864040D02*
X537460D01*
X198399Y699601D02*
X199000Y699000D01*
X91123Y699601D02*
X198399D01*
X70569Y679047D02*
X91123Y699601D01*
X70569Y673993D02*
Y679047D01*
X48576Y652000D02*
X70569Y673993D01*
X43997Y652000D02*
X48576D01*
X47000Y485000D02*
Y506000D01*
X495077Y650000D02*
X557997D01*
X526419Y1246000D02*
X530997D01*
X97000Y1223000D02*
X99009Y1225009D01*
Y1230964D01*
X128003Y1259957D01*
Y1264000D01*
X67997Y1206503D02*
Y1241000D01*
Y1206503D02*
X95000Y1179500D01*
Y1174500D02*
Y1179500D01*
X566000Y1168500D02*
Y1217000D01*
X1473400Y1060000D02*
Y1062232D01*
X1492065Y1080897D01*
Y1322731D01*
X1434061Y1380735D02*
X1492065Y1322731D01*
X1331665Y1380735D02*
X1434061D01*
X1272800Y1439600D02*
X1331665Y1380735D01*
X1169982Y1465000D02*
X1171200D01*
X1153192Y1481790D02*
X1169982Y1465000D01*
X1087608Y1481790D02*
X1153192D01*
X1071679Y1465861D02*
X1087608Y1481790D01*
X1069000Y1465000D02*
X1069600D01*
X1044200Y1439600D02*
X1069600D01*
X1018800D02*
X1044200D01*
X993400D02*
X1018800D01*
X1435000Y1005300D02*
X1460400D01*
X775500Y864500D02*
X777500D01*
X760460Y849460D02*
X775500Y864500D01*
X760460Y623963D02*
Y849460D01*
Y623963D02*
X992423Y392000D01*
X994000D01*
X1118978Y650000D02*
Y688181D01*
X1105000Y702159D02*
X1118978Y688181D01*
X1105000Y702159D02*
Y705000D01*
X1332210Y1481790D02*
X1349000Y1465000D01*
X1265408Y1481790D02*
X1332210D01*
X1248618Y1465000D02*
X1265408Y1481790D01*
X1247400Y1465000D02*
X1248618D01*
X1272800Y1439600D02*
Y1465000D01*
X1349000Y1439600D02*
Y1465000D01*
X1145800Y1439600D02*
Y1465000D01*
X1155000Y863000D02*
X1157500D01*
X832500Y863522D02*
X835071D01*
X795750Y640000D02*
X797500Y641750D01*
D55*
X1122500Y747500D02*
Y762500D01*
X850000Y750000D02*
Y762500D01*
X827689Y654811D02*
Y702500D01*
X720000Y864500D02*
X777500D01*
X692500Y666750D02*
Y852500D01*
Y666750D02*
X719250Y640000D01*
X692500Y852500D02*
X705000Y865000D01*
X662638Y1360112D02*
X709738Y1313012D01*
X660112Y1360112D02*
X662638D01*
X1142500Y650000D02*
Y762500D01*
X1012500Y865000D02*
X1062500Y865000D01*
X1102500Y865000D02*
X1105000D01*
X1062500Y865000D02*
X1102500Y865000D01*
X720000Y865000D02*
Y917500D01*
X709738Y1310000D02*
Y1313012D01*
X1105500Y833000D02*
X1110429D01*
X1111429Y832000D01*
X1155000D01*
Y800500D02*
Y832000D01*
X1102500Y836000D02*
X1105500Y833000D01*
X1142000Y787500D02*
X1155000Y800500D01*
X1157500Y863000D02*
X1190000D01*
X897916Y865000D02*
X900000D01*
X835071Y863522D02*
X896438D01*
X897916Y865000D01*
X1057500Y727500D02*
X1129571D01*
X1132500Y730429D02*
Y762500D01*
X1129571Y727500D02*
X1132500Y730429D01*
X1012500Y792500D02*
Y832488D01*
X827500Y745000D02*
X845000D01*
X1117500Y742500D02*
X1122500Y747500D01*
X827689Y654811D02*
X832398Y650102D01*
X845637D01*
X845739Y650000D01*
X1092500Y742500D02*
X1117500D01*
X1057500Y645000D02*
Y727500D01*
Y756500D02*
X1061250D01*
X1088500Y787500D02*
X1123000D01*
X1061250Y756500D02*
X1063500Y758750D01*
Y762500D01*
X1088500Y787500D01*
X845000Y745000D02*
X850000Y750000D01*
X977500Y657500D02*
X990000Y645000D01*
X1008990D01*
X977500Y850000D02*
X985000Y857500D01*
X977500Y657500D02*
Y850000D01*
X860000Y737500D02*
Y762500D01*
X852500Y730000D02*
X860000Y737500D01*
X801500Y730000D02*
X852500D01*
X800000Y728500D02*
X801500Y730000D01*
X1066000Y836000D02*
X1105000D01*
X1062500Y839500D02*
X1066000Y836000D01*
X1062500Y839500D02*
Y850000D01*
X705000Y865000D02*
X720000D01*
X985000Y857500D02*
X1012500Y857500D01*
X832500Y862500D02*
Y863522D01*
X800125Y637500D02*
Y728375D01*
X800000Y728500D02*
X800125Y728375D01*
X720000Y800000D02*
Y832000D01*
X832394Y835108D02*
X832500Y835000D01*
X869571Y797396D01*
X777500Y835500D02*
X832394Y835108D01*
X869500Y787500D02*
X869571Y797396D01*
X832250Y787500D02*
X850500D01*
X801250Y756500D02*
X832250Y787500D01*
D56*
X90000Y1287000D02*
X117000Y1314000D01*
X67997Y1287000D02*
X90000D01*
D57*
X1120000Y605000D02*
X1142500Y627500D01*
X871186Y606314D02*
X875570D01*
X876884Y605000D01*
X870000Y607500D02*
X871186Y606314D01*
X876884Y605000D02*
X1120000D01*
X870000Y650000D02*
Y762500D01*
X869261Y607500D02*
Y650000D01*
X1142500Y627500D02*
Y650000D01*
X1102500Y895000D02*
X1212800Y1005300D01*
X1102500Y865000D02*
Y895000D01*
X1212800Y1005300D02*
X1435000D01*
D58*
X552120Y920500D02*
D03*
X86120Y937500D02*
D03*
D59*
X572000Y971000D02*
D03*
X106000Y988000D02*
D03*
D60*
X1473400Y1060000D02*
D03*
X1448000D02*
D03*
X1422600D02*
D03*
X1397200D02*
D03*
X1371800D02*
D03*
X1346400D02*
D03*
X1321000D02*
D03*
X1295600D02*
D03*
X1270200D02*
D03*
X1244800D02*
D03*
X1219400D02*
D03*
X1194000D02*
D03*
X1168600D02*
D03*
X1143200D02*
D03*
X1117800D02*
D03*
X1092400D02*
D03*
X1067000D02*
D03*
X1041600D02*
D03*
X1016200D02*
D03*
X990800D02*
D03*
X965400D02*
D03*
X1473400Y1315000D02*
D03*
X1448000D02*
D03*
X1422600D02*
D03*
X1397200D02*
D03*
X1371800D02*
D03*
X1346400D02*
D03*
X1321000D02*
D03*
X1295600D02*
D03*
X1270200D02*
D03*
X1244800D02*
D03*
X1219400D02*
D03*
X1194000D02*
D03*
X1168600D02*
D03*
X1143200D02*
D03*
X1117800D02*
D03*
X1092400D02*
D03*
X1067000D02*
D03*
X1041600D02*
D03*
X1016200D02*
D03*
X990800D02*
D03*
X965400D02*
D03*
D61*
X940000Y1060000D02*
D03*
Y1315000D02*
D03*
D62*
X333000Y547000D02*
D03*
X1460400Y649700D02*
D03*
Y675100D02*
D03*
X1435000Y649700D02*
D03*
Y675100D02*
D03*
X1460400Y725900D02*
D03*
X1435000D02*
D03*
X1460400Y751300D02*
D03*
X1435000D02*
D03*
X1460400Y802100D02*
D03*
X1435000D02*
D03*
X1460400Y852900D02*
D03*
X1435000D02*
D03*
X1460400Y929100D02*
D03*
X1435000D02*
D03*
X1460400Y954500D02*
D03*
X1435000D02*
D03*
X1460400Y1005300D02*
D03*
X1435000Y979900D02*
D03*
X1460400D02*
D03*
X1435000Y903700D02*
D03*
X1460400D02*
D03*
X1435000Y878300D02*
D03*
X1460400D02*
D03*
X1435000Y827500D02*
D03*
X1460400D02*
D03*
X1435000Y776700D02*
D03*
X1460400D02*
D03*
X1435000Y700500D02*
D03*
X1460400D02*
D03*
X993400Y1439600D02*
D03*
X1018800D02*
D03*
X993400Y1465000D02*
D03*
X1018800D02*
D03*
X1069600Y1439600D02*
D03*
Y1465000D02*
D03*
X1095000Y1439600D02*
D03*
Y1465000D02*
D03*
X1145800Y1439600D02*
D03*
Y1465000D02*
D03*
X1196600Y1439600D02*
D03*
Y1465000D02*
D03*
X1272800Y1439600D02*
D03*
Y1465000D02*
D03*
X1298200Y1439600D02*
D03*
Y1465000D02*
D03*
X1349000Y1439600D02*
D03*
X1323600Y1465000D02*
D03*
Y1439600D02*
D03*
X1247400Y1465000D02*
D03*
Y1439600D02*
D03*
X1222000Y1465000D02*
D03*
Y1439600D02*
D03*
X1171200Y1465000D02*
D03*
Y1439600D02*
D03*
X1120400Y1465000D02*
D03*
Y1439600D02*
D03*
X1044200Y1465000D02*
D03*
Y1439600D02*
D03*
X196000Y1004000D02*
D03*
X332000Y1007800D02*
D03*
X326000Y1164000D02*
D03*
X194000Y1165000D02*
D03*
X199000Y400000D02*
D03*
X335000D02*
D03*
X199000Y549800D02*
D03*
D63*
X333000Y496200D02*
D03*
X196000Y953200D02*
D03*
X332000Y957000D02*
D03*
X326000Y1113200D02*
D03*
X194000Y1114200D02*
D03*
X199000Y349200D02*
D03*
X335000D02*
D03*
X199000Y499000D02*
D03*
D64*
X331000Y643200D02*
D03*
X196000Y1409000D02*
D03*
X324000Y1408200D02*
D03*
X196000Y1262200D02*
D03*
X324000Y1263200D02*
D03*
X197000Y796200D02*
D03*
X330000D02*
D03*
X199000Y648200D02*
D03*
D65*
X331000Y668600D02*
D03*
Y694000D02*
D03*
X196000Y1434400D02*
D03*
Y1459800D02*
D03*
X324000Y1433600D02*
D03*
Y1459000D02*
D03*
X196000Y1287600D02*
D03*
Y1313000D02*
D03*
X324000Y1288600D02*
D03*
Y1314000D02*
D03*
X197000Y821600D02*
D03*
Y847000D02*
D03*
X330000Y821600D02*
D03*
Y847000D02*
D03*
X199000Y673600D02*
D03*
Y699000D02*
D03*
D66*
X474000Y400000D02*
D03*
X468000Y1008400D02*
D03*
X469000Y1163000D02*
D03*
X470000Y1310800D02*
D03*
X463000Y1460000D02*
D03*
X468000Y847000D02*
D03*
X471000Y696800D02*
D03*
X472000Y548000D02*
D03*
D67*
X474000Y349200D02*
D03*
X468000Y957600D02*
D03*
X469000Y1112200D02*
D03*
X470000Y1260000D02*
D03*
X463000Y1409200D02*
D03*
X468000Y796200D02*
D03*
X471000Y646000D02*
D03*
X472000Y497200D02*
D03*
D68*
X1435000Y1005300D02*
D03*
D69*
X994000Y392000D02*
D03*
X944000D02*
D03*
X894000D02*
D03*
X844000D02*
D03*
X794000D02*
D03*
X744000D02*
D03*
X694000D02*
D03*
X644000D02*
D03*
X594000D02*
D03*
D70*
X1349000Y1465000D02*
D03*
D71*
X592000Y1328000D02*
D03*
X63000Y469000D02*
D03*
X253000Y652000D02*
D03*
X87000Y729000D02*
D03*
X675000Y1190000D02*
D03*
X557000Y727000D02*
D03*
X597170Y1068000D02*
D03*
X85073Y1397184D02*
D03*
X707000Y1372000D02*
D03*
X44000Y613000D02*
D03*
X500000Y1229000D02*
D03*
X117000Y1314000D02*
D03*
X522000Y505000D02*
D03*
X633000Y1257000D02*
D03*
X675000Y1134000D02*
D03*
Y1162460D02*
D03*
X97000Y1223000D02*
D03*
X566000Y1217000D02*
D03*
X660112Y1360112D02*
D03*
X770000Y1337500D02*
D03*
X1105000Y705000D02*
D03*
X720000Y917500D02*
D03*
X807500Y1165000D02*
D03*
X887500Y1282500D02*
D03*
X770000Y1255000D02*
D03*
X807500Y1192500D02*
D03*
X675000Y1105000D02*
D03*
D72*
X681000Y800000D02*
D03*
X870000Y607500D02*
D03*
X1190000Y863000D02*
D03*
X900000Y865000D02*
D03*
X1092500Y742500D02*
D03*
X1012500Y792500D02*
D03*
X827500Y745000D02*
D03*
Y702500D02*
D03*
X720000Y800000D02*
D03*
D73*
X50000Y1462500D02*
D03*
X1462500D02*
D03*
X47000Y339000D02*
D03*
X1462000Y341000D02*
D03*
M02*
