M48
;Layer_Color=9474304
;FILE_FORMAT=4:4
METRIC,LZ
;TYPE=PLATED
T01F00S00C0.7112
T02F00S00C1.0000
T03F00S00C1.0120
T04F00S00C1.1000
T05F00S00C1.2500
T06F00S00C1.3000
T07F00S00C1.3500
T08F00S00C3.0000
%
T01
X0087Y006075
X008275Y007025
Y00745
X010125Y007925
X010925Y007425
X0072Y008
X00681
X009Y00865
X0119Y00863
T02
X00474Y003492
Y004
X00472Y004972
Y00548
X00471Y00646
Y006968
X00468Y007962
Y00847
Y009576
Y010084
X00469Y011122
Y01163
X0047Y0126
Y013108
X00463Y014092
Y0146
T03
X0008612Y009375
X00106Y00988
X00572Y00971
X0055212Y009205
T04
X00199Y003492
X00335
X01435Y006497
X014604
Y006751
X01435
Y007005
Y007259
X014604
Y007513
X01435
Y007767
X014604
Y007005
X00331Y00694
Y006686
Y006432
X00333Y00547
Y004962
X00335Y004
X00199
Y00499
Y005498
Y006482
Y006736
Y00699
X00197Y007962
Y008216
Y00847
X00196Y009532
Y01004
X00194Y011142
Y01165
X00326Y01164
Y011132
X00332Y010078
Y00957
X0033Y00847
Y008216
Y007962
X01435Y008021
X014604
Y008275
Y008529
X01435
Y008783
Y009037
Y009291
X014604
Y009545
X01435
Y009799
Y010053
X014604
Y009799
Y009037
Y008783
X01435Y008275
X01349Y014396
Y01465
X013236
X012982
X012728
Y014396
X012982
X013236
X012474
Y01465
X01222
X011966
Y014396
X01222
X011712
X011458
Y01465
X011712
X011204
X01095
X010696
Y014396
X01095
X011204
X010442
X010188
X009934
Y01465
X010188
X010442
X00324Y01459
Y014336
Y014082
Y01314
Y012886
Y012632
X00196Y012622
Y012876
Y01313
Y01409
Y014344
Y014598
T05
X01105Y00705
X00557Y00727
X00522Y00505
X00253Y00652
X00087Y00729
X00044Y00613
X00063Y00469
X0072Y009175
X00675Y01105
Y01134
Y0116246
Y0119
X0059717Y01068
X008075Y01165
Y011925
X008875Y012825
X0077Y01255
Y013375
X00707Y01372
X00660112Y01360112
X00592Y01328
X00633Y01257
X00566Y01217
X005Y01229
X00097Y01223
X00117Y01314
X00085073Y01397184
T06
X00594Y00392
X00644
X00694
X00744
X00794
X00844
X00894
X00944
X00994
T07
X0094Y0106
X009654
X009908
X010162
X010416
X01067
X010924
X011178
X011432
X011686
X01194
X012194
X012448
X012702
X012956
X01321
X013464
X013718
X013972
X014226
X01448
X014734
Y01315
X01448
X014226
X013972
X013718
X013464
X01321
X012956
X012702
X012448
X012194
X01194
X011686
X011432
X011178
X010924
X01067
X010416
X010162
X009908
X009654
X0094
T08
X00047Y00339
X01462Y00341
X014625Y014625
X0005
M30
