G04*
G04 #@! TF.GenerationSoftware,Altium Limited,Altium Designer,25.2.1 (25)*
G04*
G04 Layer_Physical_Order=3*
G04 Layer_Color=16440176*
%FSLAX44Y44*%
%MOMM*%
G71*
G04*
G04 #@! TF.SameCoordinates,E4EDD719-2FE0-4279-8059-04D131320F8D*
G04*
G04*
G04 #@! TF.FilePolarity,Positive*
G04*
G01*
G75*
%ADD15C,0.2540*%
%ADD53C,1.5000*%
%ADD54C,1.2000*%
%ADD58R,1.5180X1.5180*%
%ADD59C,1.5180*%
%ADD60C,2.0250*%
%ADD61R,2.0250X2.0250*%
%ADD62C,1.6500*%
%ADD63R,1.6500X1.6500*%
%ADD64R,1.7000X1.7000*%
%ADD65C,1.7000*%
%ADD66C,1.6000*%
%ADD67R,1.6000X1.6000*%
G04:AMPARAMS|DCode=68|XSize=1.65mm|YSize=1.65mm|CornerRadius=0.4125mm|HoleSize=0mm|Usage=FLASHONLY|Rotation=270.000|XOffset=0mm|YOffset=0mm|HoleType=Round|Shape=RoundedRectangle|*
%AMROUNDEDRECTD68*
21,1,1.6500,0.8250,0,0,270.0*
21,1,0.8250,1.6500,0,0,270.0*
1,1,0.8250,-0.4125,-0.4125*
1,1,0.8250,-0.4125,0.4125*
1,1,0.8250,0.4125,0.4125*
1,1,0.8250,0.4125,-0.4125*
%
%ADD68ROUNDEDRECTD68*%
%ADD69C,1.9500*%
G04:AMPARAMS|DCode=70|XSize=1.65mm|YSize=1.65mm|CornerRadius=0.4125mm|HoleSize=0mm|Usage=FLASHONLY|Rotation=180.000|XOffset=0mm|YOffset=0mm|HoleType=Round|Shape=RoundedRectangle|*
%AMROUNDEDRECTD70*
21,1,1.6500,0.8250,0,0,180.0*
21,1,0.8250,1.6500,0,0,180.0*
1,1,0.8250,-0.4125,0.4125*
1,1,0.8250,0.4125,0.4125*
1,1,0.8250,0.4125,-0.4125*
1,1,0.8250,-0.4125,-0.4125*
%
%ADD70ROUNDEDRECTD70*%
%ADD71C,2.2500*%
%ADD72C,1.2700*%
%ADD73C,5.0000*%
%ADD74C,0.1500*%
D15*
X770000Y1336800D02*
Y1337500D01*
Y1336800D02*
X1038600Y1068200D01*
X1064000Y1067500D02*
Y1106000D01*
X887500Y1282500D02*
X1064000Y1106000D01*
X1038600Y1067500D02*
Y1068200D01*
D53*
X631165Y554835D02*
X794000Y392000D01*
X631165Y554835D02*
Y1000835D01*
X469000Y1163000D02*
X631165Y1000835D01*
X195617Y1459417D02*
X196000Y1459800D01*
X194798Y1459417D02*
X195617D01*
X175710Y1440329D02*
X194798Y1459417D01*
X175710Y1157424D02*
Y1440329D01*
Y1157424D02*
X194000Y1139134D01*
Y1114200D02*
Y1139134D01*
X331000Y643200D02*
X444240Y529960D01*
X497040D01*
X522000Y505000D01*
X469000Y1163000D02*
Y1163271D01*
X451960Y1180311D02*
X469000Y1163271D01*
X451960Y1180311D02*
Y1322751D01*
X463000Y1333791D01*
Y1409200D01*
D54*
X1171200Y1439600D02*
Y1465000D01*
X1069600Y1439600D02*
Y1465000D01*
D58*
X552120Y920500D02*
D03*
X86120Y937500D02*
D03*
D59*
X572000Y971000D02*
D03*
X106000Y988000D02*
D03*
D60*
X1473400Y1060000D02*
D03*
X1448000D02*
D03*
X1422600D02*
D03*
X1397200D02*
D03*
X1371800D02*
D03*
X1346400D02*
D03*
X1321000D02*
D03*
X1295600D02*
D03*
X1270200D02*
D03*
X1244800D02*
D03*
X1219400D02*
D03*
X1194000D02*
D03*
X1168600D02*
D03*
X1143200D02*
D03*
X1117800D02*
D03*
X1092400D02*
D03*
X1067000D02*
D03*
X1041600D02*
D03*
X1016200D02*
D03*
X990800D02*
D03*
X965400D02*
D03*
X1473400Y1315000D02*
D03*
X1448000D02*
D03*
X1422600D02*
D03*
X1397200D02*
D03*
X1371800D02*
D03*
X1346400D02*
D03*
X1321000D02*
D03*
X1295600D02*
D03*
X1270200D02*
D03*
X1244800D02*
D03*
X1219400D02*
D03*
X1194000D02*
D03*
X1168600D02*
D03*
X1143200D02*
D03*
X1117800D02*
D03*
X1092400D02*
D03*
X1067000D02*
D03*
X1041600D02*
D03*
X1016200D02*
D03*
X990800D02*
D03*
X965400D02*
D03*
D61*
X940000Y1060000D02*
D03*
Y1315000D02*
D03*
D62*
X333000Y547000D02*
D03*
X1460400Y649700D02*
D03*
Y675100D02*
D03*
X1435000Y649700D02*
D03*
Y675100D02*
D03*
X1460400Y725900D02*
D03*
X1435000D02*
D03*
X1460400Y751300D02*
D03*
X1435000D02*
D03*
X1460400Y802100D02*
D03*
X1435000D02*
D03*
X1460400Y852900D02*
D03*
X1435000D02*
D03*
X1460400Y929100D02*
D03*
X1435000D02*
D03*
X1460400Y954500D02*
D03*
X1435000D02*
D03*
X1460400Y1005300D02*
D03*
X1435000Y979900D02*
D03*
X1460400D02*
D03*
X1435000Y903700D02*
D03*
X1460400D02*
D03*
X1435000Y878300D02*
D03*
X1460400D02*
D03*
X1435000Y827500D02*
D03*
X1460400D02*
D03*
X1435000Y776700D02*
D03*
X1460400D02*
D03*
X1435000Y700500D02*
D03*
X1460400D02*
D03*
X993400Y1439600D02*
D03*
X1018800D02*
D03*
X993400Y1465000D02*
D03*
X1018800D02*
D03*
X1069600Y1439600D02*
D03*
Y1465000D02*
D03*
X1095000Y1439600D02*
D03*
Y1465000D02*
D03*
X1145800Y1439600D02*
D03*
Y1465000D02*
D03*
X1196600Y1439600D02*
D03*
Y1465000D02*
D03*
X1272800Y1439600D02*
D03*
Y1465000D02*
D03*
X1298200Y1439600D02*
D03*
Y1465000D02*
D03*
X1349000Y1439600D02*
D03*
X1323600Y1465000D02*
D03*
Y1439600D02*
D03*
X1247400Y1465000D02*
D03*
Y1439600D02*
D03*
X1222000Y1465000D02*
D03*
Y1439600D02*
D03*
X1171200Y1465000D02*
D03*
Y1439600D02*
D03*
X1120400Y1465000D02*
D03*
Y1439600D02*
D03*
X1044200Y1465000D02*
D03*
Y1439600D02*
D03*
X196000Y1004000D02*
D03*
X332000Y1007800D02*
D03*
X326000Y1164000D02*
D03*
X194000Y1165000D02*
D03*
X199000Y400000D02*
D03*
X335000D02*
D03*
X199000Y549800D02*
D03*
D63*
X333000Y496200D02*
D03*
X196000Y953200D02*
D03*
X332000Y957000D02*
D03*
X326000Y1113200D02*
D03*
X194000Y1114200D02*
D03*
X199000Y349200D02*
D03*
X335000D02*
D03*
X199000Y499000D02*
D03*
D64*
X331000Y643200D02*
D03*
X196000Y1409000D02*
D03*
X324000Y1408200D02*
D03*
X196000Y1262200D02*
D03*
X324000Y1263200D02*
D03*
X197000Y796200D02*
D03*
X330000D02*
D03*
X199000Y648200D02*
D03*
D65*
X331000Y668600D02*
D03*
Y694000D02*
D03*
X196000Y1434400D02*
D03*
Y1459800D02*
D03*
X324000Y1433600D02*
D03*
Y1459000D02*
D03*
X196000Y1287600D02*
D03*
Y1313000D02*
D03*
X324000Y1288600D02*
D03*
Y1314000D02*
D03*
X197000Y821600D02*
D03*
Y847000D02*
D03*
X330000Y821600D02*
D03*
Y847000D02*
D03*
X199000Y673600D02*
D03*
Y699000D02*
D03*
D66*
X474000Y400000D02*
D03*
X468000Y1008400D02*
D03*
X469000Y1163000D02*
D03*
X470000Y1310800D02*
D03*
X463000Y1460000D02*
D03*
X468000Y847000D02*
D03*
X471000Y696800D02*
D03*
X472000Y548000D02*
D03*
D67*
X474000Y349200D02*
D03*
X468000Y957600D02*
D03*
X469000Y1112200D02*
D03*
X470000Y1260000D02*
D03*
X463000Y1409200D02*
D03*
X468000Y796200D02*
D03*
X471000Y646000D02*
D03*
X472000Y497200D02*
D03*
D68*
X1435000Y1005300D02*
D03*
D69*
X994000Y392000D02*
D03*
X944000D02*
D03*
X894000D02*
D03*
X844000D02*
D03*
X794000D02*
D03*
X744000D02*
D03*
X694000D02*
D03*
X644000D02*
D03*
X594000D02*
D03*
D70*
X1349000Y1465000D02*
D03*
D71*
X592000Y1328000D02*
D03*
X63000Y469000D02*
D03*
X253000Y652000D02*
D03*
X87000Y729000D02*
D03*
X675000Y1190000D02*
D03*
X557000Y727000D02*
D03*
X597170Y1068000D02*
D03*
X85073Y1397184D02*
D03*
X707000Y1372000D02*
D03*
X44000Y613000D02*
D03*
X500000Y1229000D02*
D03*
X117000Y1314000D02*
D03*
X522000Y505000D02*
D03*
X633000Y1257000D02*
D03*
X675000Y1134000D02*
D03*
Y1162460D02*
D03*
X97000Y1223000D02*
D03*
X566000Y1217000D02*
D03*
X660112Y1360112D02*
D03*
X770000Y1337500D02*
D03*
X1105000Y705000D02*
D03*
X720000Y917500D02*
D03*
X807500Y1165000D02*
D03*
X887500Y1282500D02*
D03*
X770000Y1255000D02*
D03*
X807500Y1192500D02*
D03*
X675000Y1105000D02*
D03*
D72*
X681000Y800000D02*
D03*
X870000Y607500D02*
D03*
X1190000Y863000D02*
D03*
X900000Y865000D02*
D03*
X1092500Y742500D02*
D03*
X1012500Y792500D02*
D03*
X827500Y745000D02*
D03*
Y702500D02*
D03*
X720000Y800000D02*
D03*
D73*
X50000Y1462500D02*
D03*
X1462500D02*
D03*
X47000Y339000D02*
D03*
X1462000Y341000D02*
D03*
D74*
X1295600Y1060000D02*
X1494895Y1259295D01*
Y1343555D01*
X1244800Y1060000D02*
X1486815Y1302015D01*
Y1320557D01*
X1390530Y1442206D02*
X1490855Y1341882D01*
X1357870Y1480580D02*
X1494895Y1343555D01*
X1429683Y1377688D02*
X1486815Y1320557D01*
X1270200Y1060000D02*
X1490855Y1280655D01*
X1312060Y1434820D02*
X1369192Y1377688D01*
X1429683D01*
X1490855Y1280655D02*
Y1341882D01*
X1360540Y1461247D02*
X1379581Y1442206D01*
X1390530D01*
X1451320Y1005300D02*
X1471940Y984680D01*
X1463065Y686845D02*
X1471940Y695720D01*
Y984680D01*
X1095000Y1465000D02*
X1096420Y1463580D01*
Y1454500D02*
X1106540Y1444380D01*
X1096420Y1454500D02*
Y1463580D01*
X1106540Y1326260D02*
Y1444380D01*
X878057Y1352040D02*
X928512Y1301585D01*
X1129785D01*
X1143200Y1315000D01*
X752000Y1302000D02*
Y1340063D01*
X763977Y1352040D02*
X878057D01*
X752000Y1340063D02*
X763977Y1352040D01*
X752000Y1302000D02*
X912878Y1141122D01*
X1106540Y1326260D02*
X1117800Y1315000D01*
X1446745Y686845D02*
X1463065D01*
X1435000Y675100D02*
X1446745Y686845D01*
X1315333Y751300D02*
X1435000D01*
X1165292Y901341D02*
X1315333Y751300D01*
X1073756Y901341D02*
X1165292D01*
X912878Y1062219D02*
X1073756Y901341D01*
X912878Y1062219D02*
Y1141122D01*
X1327559Y934941D02*
X1435000Y827500D01*
X1327559Y934941D02*
Y951841D01*
X1219400Y1060000D02*
X1327559Y951841D01*
X1435000Y1005300D02*
X1451320D01*
X1433000Y981900D02*
X1435000Y979900D01*
X1424500Y981900D02*
X1433000D01*
X1346400Y1060000D02*
X1424500Y981900D01*
X1448860Y968360D02*
X1460400Y979900D01*
X1412640Y968360D02*
X1448860D01*
X1321000Y1060000D02*
X1412640Y968360D01*
X1222000Y1465000D02*
X1237580Y1480580D01*
X1357870D01*
X1360540Y1461247D02*
Y1472196D01*
X1356196Y1476540D02*
X1360540Y1472196D01*
X1309740Y1476540D02*
X1356196D01*
X1298200Y1465000D02*
X1309740Y1476540D01*
X1312060Y1434820D02*
Y1444380D01*
X1322180Y1454500D01*
Y1463580D01*
X1323600Y1465000D01*
M02*
